<svg id="en6wOTfKMJc1" xmlns="http://www.w3.org/2000/svg" xmlns:xlink="http://www.w3.org/1999/xlink" viewBox="0 0 600 600" shape-rendering="geometricPrecision" text-rendering="geometricPrecision"><style><![CDATA[#en6wOTfKMJc24 {animation: en6wOTfKMJc24_c_o 2000ms linear infinite normal forwards}@keyframes en6wOTfKMJc24_c_o { 0% {opacity: 0} 10% {opacity: 1} 100% {opacity: 1}} #en6wOTfKMJc25 {animation: en6wOTfKMJc25_c_o 2000ms linear infinite normal forwards}@keyframes en6wOTfKMJc25_c_o { 0% {opacity: 0} 10% {opacity: 0} 20% {opacity: 1} 100% {opacity: 1}} #en6wOTfKMJc26 {animation: en6wOTfKMJc26_c_o 2000ms linear infinite normal forwards}@keyframes en6wOTfKMJc26_c_o { 0% {opacity: 0} 20% {opacity: 0} 30% {opacity: 1} 100% {opacity: 1}} #en6wOTfKMJc27 {animation: en6wOTfKMJc27_c_o 2000ms linear infinite normal forwards}@keyframes en6wOTfKMJc27_c_o { 0% {opacity: 0} 30% {opacity: 0} 40% {opacity: 1} 100% {opacity: 1}} #en6wOTfKMJc28 {animation: en6wOTfKMJc28_c_o 2000ms linear infinite normal forwards}@keyframes en6wOTfKMJc28_c_o { 0% {opacity: 0} 40% {opacity: 0} 50% {opacity: 1} 100% {opacity: 1}} #en6wOTfKMJc29 {animation: en6wOTfKMJc29_c_o 2000ms linear infinite normal forwards}@keyframes en6wOTfKMJc29_c_o { 0% {opacity: 0} 50% {opacity: 0} 60% {opacity: 1} 100% {opacity: 1}} #en6wOTfKMJc30 {animation: en6wOTfKMJc30_c_o 2000ms linear infinite normal forwards}@keyframes en6wOTfKMJc30_c_o { 0% {opacity: 0} 60% {opacity: 0} 70% {opacity: 1} 100% {opacity: 1}} #en6wOTfKMJc31 {animation: en6wOTfKMJc31_c_o 2000ms linear infinite normal forwards}@keyframes en6wOTfKMJc31_c_o { 0% {opacity: 0} 70% {opacity: 0} 80% {opacity: 1} 100% {opacity: 1}}]]></style><defs><polygon id="en6wOTfKMJc2" points="0,342 423,342 423,0 0,0"/></defs><g><g transform="translate(87 129)"><g transform="translate(2 0)"><path d="M334.184077,13.582038c-.330034,0-.589888.036182-.808014.110449v4.250363h.47798c2.0978,0,2.905814-.592232,2.905814-2.439389c0-1.700526-1.397901-1.921423-2.57578-1.921423v0Zm2.873569,12.229316l-3.571572-5.764269h-.110011v5.764269h-3.165668v-13.891756c1.177879-.592233,2.577677-.961664,4.121628-.961664c4.269574,0,5.70541,2.549837,5.70541,4.469356c0,2.218492-1.325825,3.621949-3.203603,4.250363l4.233536,6.133701h-4.00972ZM335.031922,8.444278c-5.705411,0-10.158969,4.730243-10.158969,10.347883c0,5.615735,4.453558,10.271711,10.158969,10.271711c5.703514,0,10.157072-4.655976,10.157072-10.271711c0-5.61764-4.453558-10.347883-10.157072-10.347883v0Zm0,23.500777c-7.213324,0-13.102718-5.836632-13.102718-13.152894c0-7.28008,5.889394-13.154798,13.102718-13.154798c7.175388,0,13.100821,5.874718,13.100821,13.154798c0,7.316262-5.925433,13.152894-13.100821,13.152894v0Z" fill="#1d1d1b" fill-rule="evenodd"/><polygon points="220.598063,11.274725 294.606919,25.262925 318.185841,59.963008 299.557201,159.725275 196.526549,140.240163" fill="#fefefe" fill-rule="evenodd"/><polygon points="303.411309,169.120879 185.29646,146.995307 213.104175,0 295.882591,15.503791 293.187471,29.784927 224.643712,16.872268 202.226236,135.365127 291.871773,152.25609 309.508128,58.98096 323.800885,61.682393" fill="#1d1d1b" fill-rule="evenodd"/><polyline points="295.811114,15.032967 288.238938,55.192027 323.800885,62.010989" fill="#1d1d1b" fill-rule="evenodd"/><polygon points="286.367257,57.050015 293.876114,16.912088 294.928264,17.111853 295.589043,18.37333 288.65541,55.472243 321.24294,61.772233 321.929204,62.852443 321.74171,63.89011" fill="#fefefe" fill-rule="evenodd"/><polygon points="159.09292,56.492526 234.227956,56.373626 263.748228,86.094672 263.90708,187.751668 159.292887,187.912088" fill="#009ee2" fill-rule="evenodd"/><polygon points="269.522124,197.119975 149.844626,197.307692 149.734513,47.103793 233.616075,46.978022 233.625407,61.559904 164.161134,61.610588 164.250717,182.680758 255.09177,182.630074 255.018984,87.32974 269.501594,87.322231" fill="#1d1d1b" fill-rule="evenodd"/><polyline points="233.984203,45.098901 233.960177,86.422306 269.522124,86.43956" fill="#1d1d1b" fill-rule="evenodd"/><polygon points="233.960177,88.299979 233.984779,46.978022 235.089999,46.978022 236.015431,48.10393 235.990828,86.287558 270.489191,86.311871 271.393805,87.260103 271.393805,88.318681" fill="#fefefe" fill-rule="evenodd"/><polygon points="229.588553,133.897756 193.844155,112.747253 121.659292,131.916541 141.516672,208.582418 248.933628,208.582418" fill="#fefefe" fill-rule="evenodd"/><polygon points="127.906399,135.089995 194.654867,117.445289 191.007066,103.351648 110.429204,124.733035 132.099147,208.582418 146.897952,208.582418" fill="#1d1d1b" fill-rule="evenodd"/><polygon points="236.78721,133.417582 222.730088,137.086396 241.4417,208.582418 256.420354,208.582418" fill="#1d1d1b" fill-rule="evenodd"/><polygon points="190.911504,103.351648 235.831858,133.570421 201.115759,142.813187" fill="#1d1d1b" fill-rule="evenodd"/><polyline points="190.911504,103.351648 201.115759,142.813187 235.831858,133.570421" fill="#1d1d1b" fill-rule="evenodd"/><polygon points="201.512101,144.692308 190.911504,105.511341 191.983857,105.230769 193.167796,106.068816 202.962709,142.282695 236.307779,133.805038 237.427414,134.48171 237.70354,135.484799" fill="#fefefe" fill-rule="evenodd"/><line x1="104.814159" y1="209.521978" x2="312.570796" y2="209.521978" fill="#009ee2" fill-rule="evenodd"/><g mask="url(#en6wOTfKMJc32)"><polygon points="104.814159,210.461538 312.570796,210.461538 312.570796,208.582418 104.814159,208.582418" fill="#009ee2" fill-rule="evenodd"/><path id="en6wOTfKMJc24" d="M2.119036,278.409433c3.756133,2.27169,9.24875,4.163834,15.02828,4.163834c8.573659,0,13.584336-4.446632,13.584336-10.882156c0-5.962953-3.467344-9.369557-12.236028-12.681275-10.595182-3.691263-17.147317-9.08862-17.147317-18.078632c0-9.933293,8.380507-17.315819,21.002837-17.315819c6.645898,0,11.463424,1.514459,14.353189,3.123806l-2.312187,6.720182c-2.120911-1.136775-6.454622-3.03078-12.331666-3.03078-8.862447,0-12.236028,5.203863-12.236028,9.55933c0,5.962953,3.951159,8.895126,12.911119,12.30173c10.981484,4.163834,16.569739,9.369557,16.569739,18.739114c0,9.842128-7.418502,18.355848-22.735572,18.355848-6.263346,0-13.102395-1.793537-16.569738-4.065226l2.119036-6.909956Z" opacity="0" fill="#575756" fill-rule="evenodd"/><polygon id="en6wOTfKMJc25" points="87.026962,259.429892 62.442534,259.429892 62.442534,282.464533 89.840708,282.464533 89.840708,289.384615 54.278761,289.384615 54.278761,225.494505 88.434766,225.494505 88.434766,232.416488 62.442534,232.416488 62.442534,252.604813 87.026962,252.604813" opacity="0" fill="#575756" fill-rule="evenodd"/><path id="en6wOTfKMJc26" d="M106.685841,225.494505h8.212456v30.809759h.280927c1.698677-2.466301,3.397354-4.740694,5.002388-6.826979l19.440203-23.98278h10.19206l-23.026714,27.112208l24.819034,36.777902h-9.720102l-20.947849-31.375981-6.039947,7.016986v24.358995h-8.212456v-63.89011Z" opacity="0" fill="#575756" fill-rule="evenodd"/><path id="en6wOTfKMJc27" d="M170.998344,255.69868h8.346335c8.72233,0,14.256151-4.800151,14.256151-12.044702c0-8.18572-5.907954-11.763672-14.537216-11.856091-3.938637,0-6.753012.377222-8.06527.752558v23.148235Zm-8.162061-28.887669c4.126634-.846864,10.038311-1.316506,15.6652-1.316506c8.720469,0,14.349219,1.599422,18.289717,5.173602c3.186647,2.823507,4.96983,7.152131,4.96983,12.044702c0,8.376217-5.252756,13.927041-11.9127,16.184715v.28103c4.876761,1.693728,7.786066,6.210963,9.286322,12.797261c2.064247,8.845858,3.564503,14.960629,4.878622,17.4088h-8.443126c-1.031193-1.789919-2.43838-7.246436-4.221563-15.14924-1.874388-8.753439-5.250894-12.044702-12.660966-12.327619h-7.689275v27.476859h-8.162061v-62.573604Z" opacity="0" fill="#575756" fill-rule="evenodd"/><polygon id="en6wOTfKMJc28" points="251.734927,259.429892 227.150499,259.429892 227.150499,282.464533 254.548673,282.464533 254.548673,289.384615 218.986726,289.384615 218.986726,225.494505 253.142731,225.494505 253.142731,232.416488 227.150499,232.416488 227.150499,252.604813 251.734927,252.604813" opacity="0" fill="#575756" fill-rule="evenodd"/><polygon id="en6wOTfKMJc29" points="285.003266,232.509592 265.778761,232.509592 265.778761,225.494505 312.570796,225.494505 312.570796,232.509592 293.255101,232.509592 293.255101,289.384615 285.003266,289.384615" opacity="0" fill="#575756" fill-rule="evenodd"/><path id="en6wOTfKMJc30" d="M343.142054,217.037612c0-2.629088,1.952887-4.696953,4.553048-4.696953c2.602006,0,4.460844,2.067865,4.460844,4.696953c0,2.630971-1.766634,4.793001-4.460844,4.793001-2.788258,0-4.553048-2.16203-4.553048-4.793001v0Zm4.831505,46.03729l-6.13343-18.226586c-1.392285-4.133845-2.321704-7.892914-3.251123-11.557818h-.186253c-.929419,3.760952-1.951043,7.612303-3.158919,11.463653l-6.131586,18.320751h18.861311Zm-22.116123-46.03729c0-2.629088,2.046935-4.696953,4.647097-4.696953c2.603849,0,4.460844,2.067865,4.460844,4.696953c0,2.630971-1.764791,4.793001-4.553049,4.793001-2.696053,0-4.554892-2.16203-4.554892-4.793001v0Zm1.580382,52.42733l-6.504092,19.919673h-8.36293l21.278909-63.325992h9.757059l21.371112,63.325992h-8.641387l-6.690344-19.919673h-22.208327Z" opacity="0" fill="#575756" fill-rule="evenodd"/><path id="en6wOTfKMJc31" d="M388.483548,254.707083h8.726951c9.120193,0,14.90539-4.940191,14.90539-12.398577c0-8.424165-6.178439-12.106201-15.198431-12.204288-4.11959,0-7.059453.388575-8.43391.775265v23.8276Zm-8.532221-29.735457c4.316211-.875238,10.49276-1.356241,16.376268-1.356241c9.123974,0,15.0037,1.64673,19.121399,5.326879c3.334996,2.906771,5.199115,7.360299,5.199115,12.398576c0,8.62034-5.492156,14.335795-12.455189,16.659703v.290488c5.098914,1.742931,8.138979,6.394519,9.710057,13.175727c2.155269,9.10323,3.722566,15.399662,5.097023,17.917857h-8.825261c-1.075745-1.841017-2.550403-7.458385-4.410741-15.593949-1.962429-9.008915-5.492156-12.398576-13.239782-12.690951h-8.040668v28.2849h-8.532221v-64.412989Z" opacity="0" fill="#575756" fill-rule="evenodd"/><mask id="en6wOTfKMJc32" mask-type="luminance"><use width="423" height="342" xlink:href="#en6wOTfKMJc2" fill="#fff" fill-rule="evenodd"/></mask></g></g></g></g></svg>