<?xml version="1.0" encoding="UTF-8"?>
<svg xmlns="http://www.w3.org/2000/svg" xmlns:xlink="http://www.w3.org/1999/xlink" viewBox="0 0 128 128" width="128px" height="128px">
<g id="surface1351796">
<path style=" stroke:none;fill-rule:nonzero;fill:rgb(100%,100%,100%);fill-opacity:1;" d="M 94.5 112 L 33.5 112 C 28 112 23.5 107.5 23.5 102 L 23.5 22 C 23.5 16.5 28 12 33.5 12 L 94.5 12 C 100 12 104.5 16.5 104.5 22 L 104.5 102 C 104.5 107.5 100 112 94.5 112 Z M 94.5 112 "/>
<path style=" stroke:none;fill-rule:nonzero;fill:rgb(0%,61.960787%,88.627452%);fill-opacity:1;" d="M 33.5 22 L 94.5 22 L 94.5 37 L 33.5 37 Z M 88.5 57 L 37.5 57 C 35.800781 57 34.5 55.699219 34.5 54 C 34.5 52.300781 35.800781 51 37.5 51 L 88.5 51 C 90.199219 51 91.5 52.300781 91.5 54 C 91.5 55.699219 90.199219 57 88.5 57 Z M 88.5 72 L 37.5 72 C 35.800781 72 34.5 70.699219 34.5 69 C 34.5 67.300781 35.800781 66 37.5 66 L 88.5 66 C 90.199219 66 91.5 67.300781 91.5 69 C 91.5 70.699219 90.199219 72 88.5 72 Z M 64 87 L 37.5 87 C 35.800781 87 34.5 85.699219 34.5 84 C 34.5 82.300781 35.800781 81 37.5 81 L 64 81 C 65.699219 81 67 82.300781 67 84 C 67 85.699219 65.699219 87 64 87 Z M 64 87 "/>
<path style=" stroke:none;fill-rule:nonzero;fill:rgb(100%,38.039216%,11.372549%);fill-opacity:1;" d="M 94.5 115 L 33.5 115 C 26.300781 115 20.5 109.199219 20.5 102 L 20.5 22 C 20.5 14.800781 26.300781 9 33.5 9 L 94.5 9 C 101.699219 9 107.5 14.800781 107.5 22 L 107.5 102 C 107.5 109.199219 101.699219 115 94.5 115 Z M 33.5 15 C 29.601562 15 26.5 18.101562 26.5 22 L 26.5 102 C 26.5 105.898438 29.601562 109 33.5 109 L 94.5 109 C 98.398438 109 101.5 105.898438 101.5 102 L 101.5 22 C 101.5 18.101562 98.398438 15 94.5 15 Z M 33.5 15 "/>
</g>
</svg>
