<?xml version="1.0" encoding="UTF-8"?>
<svg width="378px" height="160px" viewBox="0 0 378 160" version="1.1" xmlns="http://www.w3.org/2000/svg" xmlns:xlink="http://www.w3.org/1999/xlink">
    <!-- Generator: Sketch 62 (91390) - https://sketch.com -->
    <title>Group</title>
    <desc>Created with Sketch.</desc>
    <defs>
        <polygon id="path-1" points="0 0.193102069 56.9631256 0.193102069 56.9631256 18.6361546 0 18.6361546"></polygon>
        <polygon id="path-3" points="0.312563976 0.0437219966 9.25175929 0.0437219966 9.25175929 13.592501 0.312563976 13.592501"></polygon>
        <polygon id="path-5" points="0 45.3994765 158.771748 45.3994765 158.771748 -5.96855852e-15 0 -5.96855852e-15"></polygon>
    </defs>
    <g id="Page-1" stroke="none" stroke-width="1" fill="none" fill-rule="evenodd">
        <g id="Login" transform="translate(-360.000000, 0.000000)">
            <g id="Group" transform="translate(360.000000, 0.000000)">
                <g id="element/triangle-white-copy-4" fill="#003F58">
                    <polygon id="Triangle" transform="translate(189.131579, 80.000000) scale(1, -1) translate(-189.131579, -80.000000) " points="189.131579 0 377.631579 160 0.631578947 160"></polygon>
                </g>
                <g id="Group-50" transform="translate(109.000000, 29.000000)">
                    <g id="Group-3" transform="translate(0.000000, 0.039480)">
                        <mask id="mask-2" fill="white">
                            <use xlink:href="#path-1"></use>
                        </mask>
                        <g id="Clip-2"></g>
                        <path d="M26.9490879,7.47591543 C27.0129279,7.09581546 27.1880679,6.31503552 27.1880679,6.31503552 C26.7693279,6.25035552 24.9360281,5.90637555 24.9360281,5.90637555 C24.9360281,5.90637555 27.3837879,3.79545571 28.3489478,3.07389576 C28.7928878,2.6652358 29.6043277,3.39015574 30.6014077,3.82359571 C31.2238476,4.09449569 32.7047675,2.5808158 33.6388474,2.01633585 C34.0109674,1.79121586 34.3251274,2.19273583 34.5128674,2.34645582 C34.6804473,2.48421581 35.0193873,2.87103578 35.0865873,2.93403578 C35.0865873,2.93403578 33.5477074,3.82611571 32.7274475,4.39941566 C32.4540275,4.59093565 32.0684675,4.96305562 31.9827875,5.06973561 C31.6904676,5.43639558 31.4813076,5.80305556 31.3355676,6.22977552 C30.5909077,8.39907536 31.5905076,12.2798751 32.6069075,15.0816948 C33.0403475,16.2757548 34.6279473,18.5907946 34.6279473,18.5907946 C34.7589873,18.3900346 37.4331271,13.448735 38.555367,11.3726751 C38.856087,10.8174352 39.230307,10.3121752 39.767907,10.1517352 C43.7133867,8.97489531 55.4700257,5.75181556 55.4700257,5.75181556 C56.1676457,5.34987559 56.9631256,3.26835575 56.9631256,3.26835575 C56.5511057,3.26835575 42.2576668,7.24617544 38.587287,8.35917536 C37.7804671,8.60403534 37.1681072,9.66537526 37.1681072,9.66537526 L34.6565073,14.8519549 C34.6565073,14.8519549 31.8509076,8.69601533 33.1953275,6.31503552 C33.5044474,5.76651556 34.1466274,5.2499156 34.7644473,4.79673563 C35.5624473,4.35867567 36.6788072,3.63921572 37.4776471,3.34689574 C37.3184671,3.05457577 37.1714672,2.85843578 36.9975872,2.6173558 C36.6800672,2.17803583 36.3612872,1.72611587 36.0370472,1.38255589 C35.5931073,0.91341593 35.3121273,0.623615952 34.9240473,0.426635967 C34.4775874,0.198995985 33.9450274,0.0885359932 33.5036074,0.325415975 C33.0491675,0.566495957 31.4036076,1.99239585 31.0793676,1.99239585 C30.5581477,1.99239585 29.3267078,0.983975925 28.6883078,0.91005593 C28.4148878,0.879395933 27.9394479,1.3166159 27.4270479,1.67487587 L21.5319283,6.72243548 C23.0577882,6.99795546 24.1514681,7.27221544 25.0040681,7.47717543 C25.0040681,7.47717543 24.3770081,10.2743752 23.4324282,12.834275 C23.0510682,13.8687349 22.7322883,14.5844149 22.7322883,14.5844149 C22.5936883,14.4231349 21.3803084,12.2945751 20.5974284,10.6830352 C19.9804485,9.41421528 19.2782085,8.93247532 17.7204286,8.51289535 C14.3142289,7.59435542 7.07762946,5.53425558 0.159389988,3.8534157 L-0.000209999984,3.8534157 C-0.000209999984,4.58379565 0.771749941,5.72325556 1.09052992,6.16131553 L17.5368887,10.6351552 C17.5368887,10.6351552 18.0312286,10.7388952 18.4054486,11.3991351 C19.5730485,13.457975 21.2744684,16.2677748 22.8041083,18.6361546 C22.8041083,18.6361546 25.885228,13.8208549 26.9490879,7.47591543" id="Fill-1" fill="#FEFEFE" mask="url(#mask-2)"></path>
                    </g>
                    <path d="M46.4194044,27.4268379 L42.6045447,28.9337978 C39.139125,32.1463775 35.6413653,33.5096974 35.6413653,33.5096974 C34.4884654,30.0715777 33.5384254,26.524258 33.5384254,26.524258 L28.9222058,30.4554577 L24.3059861,26.524258 C24.3059861,26.524258 23.3567862,30.0715777 22.2026263,33.5096974 C22.2026263,33.5096974 18.7065466,32.1463775 15.2398668,28.9337978 L11.4262671,27.4268379 C11.4262671,27.4268379 11.8139271,28.0425579 12.1373271,28.4566778 C12.462827,28.8699578 13.145747,29.5902577 13.8412669,30.2639377 C16.4200667,32.5357175 18.1021666,33.6453574 21.1307864,35.2316973 C22.0867063,35.7314973 23.5252062,36.2413772 23.5252062,36.2413772 C23.7415062,35.7554373 25.3816061,29.7872377 25.3816061,29.7872377 C25.649986,30.0766177 28.9075058,32.6755775 28.9075058,32.6755775 C28.9075058,32.6755775 32.1952655,30.0766177 32.4640655,29.7872377 C32.4640655,29.7872377 34.1029054,35.7554373 34.3200454,36.2413772 C34.3200454,36.2413772 35.7589653,35.7314973 36.7148852,35.2316973 C39.742245,33.6453574 41.4251848,32.5357175 44.0031446,30.2639377 C44.6986646,29.5902577 45.3824245,28.8699578 45.7070845,28.4566778 C46.0313245,28.0425579 46.4194044,27.4268379 46.4194044,27.4268379" id="Fill-4" fill="#FEFEFE"></path>
                    <path d="M9.37922928,23.6915682 C8.72360933,23.1644682 7.8164094,22.2589483 7.59590942,21.0753884 L18.2395486,23.7755682 C18.2395486,23.7755682 18.9745485,24.8591681 19.7687685,26.302708 L9.37922928,23.6915682 Z" id="Fill-6" fill="#FEFEFE"></path>
                    <path d="M6.35514551,18.1757506 C5.69952556,17.6490706 4.88598563,16.4062907 4.87884563,15.5595708 L15.5224848,18.2601706 C15.5224848,18.2601706 16.2591648,19.3433505 17.0533847,20.7868904 L6.35514551,18.1757506 Z" id="Fill-8" fill="#FEFEFE"></path>
                    <path d="M4.19810968,12.937469 C3.54248973,12.410369 2.72852979,11.1675891 2.72180979,10.3208692 L13.365449,13.021889 C13.365449,13.021889 14.1021289,14.1050689 14.8963489,15.5481888 L4.19810968,12.937469 Z" id="Fill-10" fill="#FEFEFE"></path>
                    <path d="M48.0179663,23.0209542 C48.6555263,22.4711743 49.7319862,21.1901744 49.7093062,20.3442944 L39.166887,23.4149142 C39.166887,23.4149142 38.4692671,24.5232941 37.7262871,25.993714 L48.0179663,23.0209542 Z" id="Fill-12" fill="#FEFEFE"></path>
                    <path d="M50.8478421,17.4030347 C51.4854021,16.8532547 52.254422,15.5831748 52.231742,14.7364549 L41.6884828,17.8070746 C41.6884828,17.8070746 40.9908629,18.9158746 40.2474629,20.3862944 L50.8478421,17.4030347 Z" id="Fill-14" fill="#FEFEFE"></path>
                    <path d="M52.820708,12.0925551 C53.4582679,11.5427751 54.2277078,10.2726952 54.2046078,9.42723528 L43.6613487,12.496595 C43.6613487,12.496595 42.9637287,13.605395 42.2203288,15.0758148 L52.820708,12.0925551 Z" id="Fill-16" fill="#FEFEFE"></path>
                    <path d="M113.927637,21.0833684 L108.127858,21.0833684 L108.127858,34.6321473 L110.128738,34.6321473 L110.128738,22.7885683 L113.769297,22.7885683 C115.096497,22.7885683 115.741197,23.3421282 115.741197,24.4820081 C115.741197,25.940668 114.502617,26.8760079 112.059897,27.2615679 L111.907017,27.2863479 L112.326177,29.0104478 L112.455957,28.9898678 C116.037297,28.4115278 117.853377,26.8697079 117.853377,24.4076681 C117.853377,22.2018283 116.532477,21.0833684 113.927637,21.0833684" id="Fill-18" fill="#FEFEFE"></path>
                    <polygon id="Fill-20" fill="#FEFEFE" points="87.2514653 21.0833684 85.1619655 21.0833684 79.4949059 34.4334874 79.4109059 34.6321473 81.5020858 34.6321473 86.1460254 23.3795082 88.3816852 28.7811278 85.1812855 28.7811278 84.6109255 30.4573477 89.1494452 30.4573477 90.896225 34.5935073 90.912605 34.6321473 93.0302449 34.6321473 87.2884253 21.1703084"></polygon>
                    <polygon id="Fill-22" fill="#FEFEFE" points="71.0293866 31.9344456 66.2922069 21.1685864 66.2548269 21.0833264 63.8398271 21.0833264 63.8398271 34.6321053 65.655067 34.6321053 65.655067 24.4618061 70.1889666 34.5947253 70.2057666 34.6321053 71.7459065 34.6321053 76.2210062 24.4714661 76.2210062 34.6321053 78.036666 34.6321053 78.036666 21.0833264 75.7144862 21.0833264"></polygon>
                    <polygon id="Fill-24" fill="#FEFEFE" points="106.782304 21.0833684 104.332444 21.0833684 100.228624 26.301448 96.1668046 21.1379684 96.1239646 21.0833684 93.6757848 21.0833684 99.0039044 27.8575479 93.6757848 34.6321473 96.1239646 34.6321473 100.228624 29.4140677 104.313544 34.6077873 104.332444 34.6321473 106.782304 34.6321473 101.453344 27.8575479 106.702504 21.1854284"></polygon>
                    <g id="Group-28" transform="translate(149.519989, 21.039478)">
                        <mask id="mask-4" fill="white">
                            <use xlink:href="#path-3"></use>
                        </mask>
                        <g id="Clip-27"></g>
                        <polygon id="Fill-26" fill="#FEFEFE" mask="url(#mask-4)" points="2.31386382 11.9158611 2.31386382 0.0437219966 0.312563976 0.0437219966 0.312563976 13.592501 9.25184329 13.592501 9.25184329 11.9158611"></polygon>
                    </g>
                    <path d="M141.020911,33.0484535 C137.852011,33.0484535 136.311872,31.3386336 136.311872,27.8202939 C136.311872,24.3523541 137.852011,22.6664743 141.020911,22.6664743 C144.120511,22.6664743 145.627051,24.3523541 145.627051,27.8202939 C145.627051,31.3386336 144.120511,33.0484535 141.020911,33.0484535 M141.020911,20.9902544 C136.508012,20.9902544 134.219432,23.3073942 134.219432,27.8761539 C134.219432,32.4205535 136.508012,34.7250933 141.020911,34.7250933 C145.465771,34.7250933 147.719491,32.4205535 147.719491,27.8761539 C147.719491,23.3073942 145.465771,20.9902544 141.020911,20.9902544" id="Fill-29" fill="#FEFEFE"></path>
                    <path d="M130.556192,27.8201679 C130.556192,31.3385076 129.049652,33.0483275 125.950052,33.0483275 C122.781993,33.0483275 121.242273,31.3385076 121.242273,27.8201679 C121.242273,24.3522281 122.781993,22.6663483 125.950052,22.6663483 C129.049652,22.6663483 130.556192,24.3522281 130.556192,27.8201679 M125.950052,20.9901284 C121.436733,20.9901284 119.148153,23.3072682 119.148153,27.8760279 C119.148153,32.4204275 121.436733,34.7249673 125.950052,34.7249673 C130.396172,34.7249673 132.650312,32.4204275 132.650312,27.8760279 C132.650312,23.3072682 130.396172,20.9901284 125.950052,20.9901284" id="Fill-31" fill="#FEFEFE"></path>
                    <path d="M65.9805669,5.07721161 L69.6652267,5.07721161 C71.0096466,5.07721161 71.6631665,5.63875157 71.6631665,6.79375148 C71.6631665,8.27005137 70.4098866,9.21673129 67.9377668,9.60901126 L67.7886668,9.63295126 L68.2111868,11.3662911 L68.3380268,11.3457111 C71.9542265,10.7614912 73.7879463,9.20455129 73.7879463,6.71899149 C73.7879463,4.49341166 72.4544464,3.36487174 69.8248266,3.36487174 L63.9683471,3.36487174 L63.9683471,17.0463707 L65.9805669,17.0463707 L65.9805669,5.07721161 Z" id="Fill-33" fill="#FEFEFE"></path>
                    <polygon id="Fill-35" fill="#FEFEFE" points="77.1796561 10.9539352 85.0088755 10.9539352 85.0088755 17.0460347 87.0210953 17.0460347 87.0210953 3.36495574 85.0088755 3.36495574 85.0088755 9.26973529 77.1796561 9.26973529 77.1796561 3.36495574 75.1674362 3.36495574 75.1674362 17.0460347 77.1796561 17.0460347"></polygon>
                    <mask id="mask-6" fill="white">
                        <use xlink:href="#path-5"></use>
                    </mask>
                    <g id="Clip-38"></g>
                    <polygon id="Fill-37" fill="#FEFEFE" mask="url(#mask-6)" points="96.4471126 1.68419987 98.4589125 1.68419987 98.4589125 -5.96855852e-15 96.4471126 -5.96855852e-15"></polygon>
                    <polygon id="Fill-39" fill="#FEFEFE" mask="url(#mask-6)" points="92.9783329 1.68419987 94.9909727 1.68419987 94.9909727 -5.96855852e-15 92.9783329 -5.96855852e-15"></polygon>
                    <path d="M90.932639,10.1678632 C90.932639,6.66044349 92.4904189,4.95524362 95.6958587,4.95524362 C98.8311584,4.95524362 100.355338,6.66044349 100.355338,10.1678632 C100.355338,13.7261029 98.8311584,15.4556628 95.6958587,15.4556628 C92.4904189,15.4556628 90.932639,13.7261029 90.932639,10.1678632 M95.6958587,17.1402827 C100.184818,17.1402827 102.461218,14.8130629 102.461218,10.2241432 C102.461218,5.61044357 100.184818,3.27146375 95.6958587,3.27146375 C91.138019,3.27146375 88.8267592,5.61044357 88.8267592,10.2241432 C88.8267592,14.8130629 91.138019,17.1402827 95.6958587,17.1402827" id="Fill-40" fill="#FEFEFE" mask="url(#mask-6)"></path>
                    <polygon id="Fill-41" fill="#FEFEFE" mask="url(#mask-6)" points="106.212574 6.61386549 114.164013 16.9920647 114.206013 17.0462447 116.147673 17.0462447 116.147673 3.36516574 114.228693 3.36516574 114.228693 13.7971249 106.235674 3.36516574 104.293594 3.36516574 104.293594 17.0462447 106.212574 17.0462447"></polygon>
                    <polygon id="Fill-42" fill="#FEFEFE" mask="url(#mask-6)" points="118.498371 17.0461187 120.510591 17.0461187 120.510591 3.36503974 118.498371 3.36503974"></polygon>
                    <polygon id="Fill-43" fill="#FEFEFE" mask="url(#mask-6)" points="121.524135 17.0462027 123.986594 17.0462027 128.136614 11.7705831 132.244634 16.9924427 132.286214 17.0462027 134.749514 17.0462027 129.368054 10.2056632 134.669714 3.46676373 134.749514 3.36512374 132.286634 3.36512374 128.136614 8.64032334 124.028174 3.41762374 123.986174 3.36512374 121.524135 3.36512374 126.905594 10.2056632 121.603935 16.9441427"></polygon>
                    <path d="M63.4302011,40.8315569 C63.4302011,38.973897 64.4663411,37.7945371 65.893501,37.7945371 C67.0094409,37.7945371 67.7352008,38.4241171 68.0380208,39.603897 L67.4958008,39.731577 C67.2169208,38.758437 66.7624809,38.3123971 65.885521,38.3123971 C64.865341,38.3123971 63.9963611,39.149457 63.9963611,40.8076169 C63.9963611,42.4577967 64.769161,43.4065767 65.9014809,43.4065767 C66.8897409,43.4065767 67.5436808,42.7127367 67.5357008,41.5174168 L66.1085409,41.5174168 L66.1085409,41.0310569 L68.0854808,41.0310569 L68.0854808,43.8051566 L67.5756008,43.8051566 L67.5756008,42.9042567 L67.5596408,42.9042567 C67.2967208,43.4225367 66.7864209,43.9168766 65.853601,43.9168766 C64.3067411,43.9168766 63.4302011,42.6014367 63.4302011,40.8315569" id="Fill-44" fill="#FEFEFE" mask="url(#mask-6)"></path>
                    <path d="M69.3608527,39.603981 L69.9110526,39.603981 L69.9110526,40.4330609 L69.9270126,40.4330609 C70.2537726,39.9147809 70.7640726,39.524181 71.5931525,39.524181 L71.6884925,39.524181 L71.6330525,40.0340609 C71.6330525,40.0340609 71.4814325,40.0265009 71.4654725,40.0265009 C70.7800326,40.0265009 70.2378126,40.4091209 69.9110526,41.0706209 L69.9110526,43.8052406 L69.3608527,43.8052406 L69.3608527,39.603981 Z" id="Fill-45" fill="#FEFEFE" mask="url(#mask-6)"></path>
                    <path d="M72.4698604,42.6411687 L72.4698604,39.604149 L73.0200604,39.604149 L73.0200604,42.5454087 C73.0200604,43.1355087 73.2750004,43.4223687 73.8567003,43.4223687 C74.3909403,43.4223687 74.8453803,43.1355087 75.3157802,42.6886287 L75.3157802,39.604149 L75.8735402,39.604149 L75.8735402,43.8049886 L75.3157802,43.8049886 L75.3157802,43.1430687 C74.9092203,43.5420687 74.3749803,43.8927686 73.7210404,43.8927686 C72.8844004,43.8927686 72.4698604,43.4223687 72.4698604,42.6411687" id="Fill-46" fill="#FEFEFE" mask="url(#mask-6)"></path>
                    <path d="M80.2740898,41.7084748 C80.2740898,40.5446549 79.6999499,39.9944549 78.9985499,39.9944549 C78.48027,39.9944549 78.08967,40.2653549 77.69109,40.6878749 L77.69109,42.7290747 C78.10563,43.1675547 78.51219,43.4145147 78.9985499,43.4145147 C79.7402699,43.4145147 80.2740898,42.8962347 80.2740898,41.7084748 L80.2740898,41.7084748 Z M77.1413101,39.603855 L77.69109,39.603855 L77.69109,40.2019349 C78.02583,39.8432549 78.46431,39.524055 79.0938899,39.524055 C80.0586299,39.524055 80.8242898,40.2334349 80.8242898,41.7004948 C80.8242898,43.1675547 80.0506499,43.8769346 79.0464299,43.8769346 C78.50421,43.8769346 78.06573,43.6135947 77.69109,43.2309747 L77.69109,45.3994345 L77.1413101,45.3994345 L77.1413101,39.603855 Z" id="Fill-47" fill="#FEFEFE" mask="url(#mask-6)"></path>
                    <path d="M85.0009375,41.7084748 C85.0009375,40.5446549 84.4267975,39.9944549 83.7253976,39.9944549 C83.2071176,39.9944549 82.8169377,40.2653549 82.4183577,40.6878749 L82.4183577,42.7290747 C82.8324777,43.1675547 83.2394576,43.4145147 83.7253976,43.4145147 C84.4671175,43.4145147 85.0009375,42.8962347 85.0009375,41.7084748 L85.0009375,41.7084748 Z M81.8681577,39.603855 L82.4183577,39.603855 L82.4183577,40.2019349 C82.7530977,39.8432549 83.1911576,39.524055 83.8211576,39.524055 C84.7858975,39.524055 85.5511374,40.2334349 85.5511374,41.7004948 C85.5511374,43.1675547 84.7779175,43.8769346 83.7732776,43.8769346 C83.2314776,43.8769346 82.7929977,43.6135947 82.4183577,43.2309747 L82.4183577,45.3994345 L81.8681577,45.3994345 L81.8681577,39.603855 Z" id="Fill-48" fill="#FEFEFE" mask="url(#mask-6)"></path>
                    <path d="M89.3772952,41.3733988 C89.3214352,40.5766589 88.9388152,39.9865589 88.1895352,39.9865589 C87.5834753,39.9865589 87.0173153,40.4250389 86.9139953,41.3733988 L89.3772952,41.3733988 Z M86.3558154,41.7005788 C86.3558154,40.2095789 87.3121553,39.524139 88.1975152,39.524139 C89.1782152,39.524139 89.9111151,40.2734189 89.9111151,41.7085588 L89.9111151,41.8122988 L86.9060153,41.8122988 C86.9139953,42.8484387 87.5036753,43.4305587 88.2294352,43.4305587 C88.8594352,43.4305587 89.2181152,43.1592387 89.5368951,42.6653187 L89.8796151,42.9362187 C89.5129551,43.5258987 88.9946752,43.8929786 88.1975152,43.8929786 C87.2168153,43.8929786 86.3558154,43.1352987 86.3558154,41.7005788 L86.3558154,41.7005788 Z" id="Fill-49" fill="#FEFEFE" mask="url(#mask-6)"></path>
                </g>
            </g>
        </g>
    </g>
</svg>